<svg width="39" height="39" viewBox="0 0 39 39" fill="none" xmlns="http://www.w3.org/2000/svg">
<path d="M28.443 0H10.5569C4.73574 0 0 4.73574 0 10.5569V28.4433C0 34.2642 4.73574 38.9999 10.5569 38.9999H28.4433C34.2642 38.9999 38.9999 34.2642 38.9999 28.4433V10.5569C38.9999 4.73574 34.2642 0 28.443 0V0ZM19.5 30.1637C13.6199 30.1637 8.83622 25.3801 8.83622 19.5C8.83622 13.6199 13.6199 8.83622 19.5 8.83622C25.3801 8.83622 30.1637 13.6199 30.1637 19.5C30.1637 25.3801 25.3801 30.1637 19.5 30.1637ZM30.4187 11.3511C28.681 11.3511 27.2677 9.93773 27.2677 8.20006C27.2677 6.4624 28.681 5.04876 30.4187 5.04876C32.1564 5.04876 33.57 6.4624 33.57 8.20006C33.57 9.93773 32.1564 11.3511 30.4187 11.3511Z" fill="white"/>
<path d="M19.5 11.1226C14.8809 11.1226 11.1226 14.8806 11.1226 19.5C11.1226 24.1191 14.8809 27.8774 19.5 27.8774C24.1194 27.8774 27.8774 24.1191 27.8774 19.5C27.8774 14.8806 24.1194 11.1226 19.5 11.1226Z" fill="white"/>
<path d="M30.4187 7.33533C29.942 7.33533 29.554 7.72333 29.554 8.2C29.554 8.67666 29.942 9.06466 30.4187 9.06466C30.8957 9.06466 31.2837 8.67696 31.2837 8.2C31.2837 7.72303 30.8957 7.33533 30.4187 7.33533Z" fill="white"/>
</svg>
