<svg width="121" height="30" viewBox="0 0 121 30" fill="none" xmlns="http://www.w3.org/2000/svg">
<path d="M14.192 29.432C11.576 29.432 9.212 28.868 7.1 27.74C5.012 26.612 3.368 25.064 2.168 23.096C0.992 21.104 0.404 18.872 0.404 16.4C0.404 13.928 0.992 11.708 2.168 9.74C3.368 7.748 5.012 6.188 7.1 5.06C9.212 3.932 11.576 3.368 14.192 3.368C16.808 3.368 19.16 3.932 21.248 5.06C23.336 6.188 24.98 7.748 26.18 9.74C27.38 11.708 27.98 13.928 27.98 16.4C27.98 18.872 27.38 21.104 26.18 23.096C24.98 25.064 23.336 26.612 21.248 27.74C19.16 28.868 16.808 29.432 14.192 29.432ZM14.192 24.464C15.68 24.464 17.024 24.128 18.224 23.456C19.424 22.76 20.36 21.8 21.032 20.576C21.728 19.352 22.076 17.96 22.076 16.4C22.076 14.84 21.728 13.448 21.032 12.224C20.36 11 19.424 10.052 18.224 9.38C17.024 8.684 15.68 8.336 14.192 8.336C12.704 8.336 11.36 8.684 10.16 9.38C8.96 10.052 8.012 11 7.316 12.224C6.644 13.448 6.308 14.84 6.308 16.4C6.308 17.96 6.644 19.352 7.316 20.576C8.012 21.8 8.96 22.76 10.16 23.456C11.36 24.128 12.704 24.464 14.192 24.464ZM51.479 9.632V29H46.151V26.696C45.407 27.536 44.519 28.184 43.487 28.64C42.455 29.072 41.339 29.288 40.139 29.288C37.595 29.288 35.579 28.556 34.091 27.092C32.603 25.628 31.859 23.456 31.859 20.576V9.632H37.475V19.748C37.475 22.868 38.783 24.428 41.399 24.428C42.743 24.428 43.823 23.996 44.639 23.132C45.455 22.244 45.863 20.936 45.863 19.208V9.632H51.479ZM69.1738 28.064C68.6218 28.472 67.9378 28.784 67.1218 29C66.3298 29.192 65.4898 29.288 64.6018 29.288C62.2978 29.288 60.5098 28.7 59.2378 27.524C57.9898 26.348 57.3658 24.62 57.3658 22.34V14.384H54.3778V10.064H57.3658V5.348H62.9818V10.064H67.8058V14.384H62.9818V22.268C62.9818 23.084 63.1858 23.72 63.5938 24.176C64.0258 24.608 64.6258 24.824 65.3938 24.824C66.2818 24.824 67.0378 24.584 67.6618 24.104L69.1738 28.064ZM78.0605 10.064H83.0285V14.384H78.2045V29H72.5885V14.384H69.6005V10.064H72.5885V9.2C72.5885 6.992 73.2365 5.24 74.5325 3.944C75.8525 2.648 77.7005 2 80.0765 2C80.9165 2 81.7085 2.096 82.4525 2.288C83.2205 2.456 83.8565 2.708 84.3605 3.044L82.8845 7.112C82.2365 6.656 81.4805 6.428 80.6165 6.428C78.9125 6.428 78.0605 7.364 78.0605 9.236V10.064ZM88.7165 9.632H94.3325V29H88.7165V9.632ZM91.5245 6.932C90.4925 6.932 89.6525 6.632 89.0045 6.032C88.3565 5.432 88.0325 4.688 88.0325 3.8C88.0325 2.912 88.3565 2.168 89.0045 1.568C89.6525 0.967998 90.4925 0.667998 91.5245 0.667998C92.5565 0.667998 93.3965 0.955998 94.0445 1.532C94.6925 2.108 95.0165 2.828 95.0165 3.692C95.0165 4.628 94.6925 5.408 94.0445 6.032C93.3965 6.632 92.5565 6.932 91.5245 6.932ZM112.029 28.064C111.477 28.472 110.793 28.784 109.977 29C109.185 29.192 108.345 29.288 107.457 29.288C105.153 29.288 103.365 28.7 102.093 27.524C100.845 26.348 100.221 24.62 100.221 22.34V14.384H97.2333V10.064H100.221V5.348H105.837V10.064H110.661V14.384H105.837V22.268C105.837 23.084 106.041 23.72 106.449 24.176C106.881 24.608 107.481 24.824 108.249 24.824C109.137 24.824 109.893 24.584 110.517 24.104L112.029 28.064Z" fill="white"/>
<path d="M117.306 29.288C116.322 29.288 115.494 28.952 114.822 28.28C114.15 27.608 113.814 26.768 113.814 25.76C113.814 24.728 114.15 23.9 114.822 23.276C115.494 22.628 116.322 22.304 117.306 22.304C118.29 22.304 119.118 22.628 119.79 23.276C120.462 23.9 120.798 24.728 120.798 25.76C120.798 26.768 120.462 27.608 119.79 28.28C119.118 28.952 118.29 29.288 117.306 29.288Z" fill="#27AE60"/>
</svg>
